<svg xmlns="http://www.w3.org/2000/svg" xmlns:xlink="http://www.w3.org/1999/xlink" style="enable-background:new 0 0 2000 2000" id="Illustration" x="0" y="0" version="1.0" viewBox="0 0 2000 2000" xml:space="preserve"><style>.st2{fill:none;stroke:#9dbcfd;stroke-width:2.5;stroke-linecap:round;stroke-linejoin:round;stroke-miterlimit:10}.st3{fill:#202970}.st5{fill:#10173a}.st7{fill:#1f296f}.st8{fill:none;stroke:#ff6089;stroke-width:5;stroke-linecap:round;stroke-linejoin:round;stroke-miterlimit:10}.st10{fill:#ff6089}.st11{fill:#1f2970}.st12{fill:#ad64f3}.st13{fill:#fff}.st16{fill:none;stroke:#1f296f;stroke-width:2.5;stroke-linecap:round;stroke-linejoin:round;stroke-miterlimit:10}.st17{fill:#ebf2ff}.st19{stroke:#1f2970}.st19,.st20,.st22{fill:none;stroke-width:2.5;stroke-linecap:round;stroke-linejoin:round;stroke-miterlimit:10}.st20{stroke:#202970}.st22{stroke:#ad64f3}.st23{fill:#b2e3f2}.st24{fill:#9dbcfd}.st25{fill:none;stroke:#10173a;stroke-width:2.5;stroke-linecap:round;stroke-linejoin:round;stroke-miterlimit:10}.st28{fill:#12ae67}.st29{fill:#14c664}.st30{fill:#ffca60}.st31{fill:#ffa161}</style><switch><g><path d="m285.2 562.51 1383.27-69.3c38.85-1.95 70.67 30.48 67.99 69.28l-53.9 781.8c-2.36 34.17-30.85 60.62-65.1 60.44l-1243.63-6.81c-32.68-.18-60.13-24.63-64.07-57.07l-85.74-705.69c-4.54-37.38 23.57-70.77 61.18-72.65z" style="fill:#ebf1ff"/><defs><path id="SVGID_1_" d="m285.2 562.51 1383.27-69.3c38.85-1.95 70.67 30.48 67.99 69.28l-53.9 781.8c-2.36 34.17-30.85 60.62-65.1 60.44l-1243.63-6.81c-32.68-.18-60.13-24.63-64.07-57.07l-85.74-705.69c-4.54-37.38 23.57-70.77 61.18-72.65z"/></defs><clipPath id="SVGID_2_"><use style="overflow:visible" xlink:href="#SVGID_1_"/></clipPath><g style="clip-path:url(#SVGID_2_)"><path class="st2" d="M199.29 1373.68h1722.85M479.27 466v538.26M306.87 768.31h296.04M266.33 1004.26h343M381.03 465.59s-44.57 295.6-136.37 425.77M316 469s21 164-87.42 338.66M296.88 469.48s-2.66 101.06-82.42 252.7M602.91 455.34v548.92M625.52 469v535.26M369.33 537.8h233.58M344.95 637.89v366.18M1875.86 760.65h-309.62v27.46h309.62M1652.46 760.65h-33.75v-84.27c0-9.32 7.56-16.87 16.88-16.87h0c9.32 0 16.87 7.56 16.87 16.87v84.27z"/><path class="st2" d="M1687.3 612.71h92.45v147.94h-92.45zM1687.3 634.76h92.45M1728.64 634.76v123.47"/><circle cx="1753.71" cy="659.5" r="7.37" class="st2"/><circle cx="1753.71" cy="696.5" r="7.37" class="st2"/></g><path d="m719.96 1538.69 84.43 21.85a34.644 34.644 0 0 1 18.07 11.51l24.17 29.31-13.33 4-18.7-21.07c-4.97-5.6-11.51-9.6-18.76-11.48l-93.2-24.12 17.32-10z" class="st3"/><circle cx="844.63" cy="1620.36" r="19.67" class="st3"/><path d="m712.56 1538.69-84.43 21.85a34.644 34.644 0 0 0-18.07 11.51l-24.17 29.31 13.33 4 18.7-21.07c4.97-5.6 11.51-9.6 18.76-11.48l93.2-24.12-17.32-10z" class="st3"/><circle cx="587.89" cy="1620.36" r="19.67" class="st3"/><path d="m702.63 1549.07 22.64 20.9a44.57 44.57 0 0 1 12.91 21.55l7.88 30.34 11.58-1.65-6.38-39c-.97-5.95-3.9-11.4-8.32-15.49l-23.76-22.02-16.55 5.37z" class="st3"/><circle cx="755.94" cy="1619.85" r="19.67" style="fill:#25293f"/><path class="st3" d="M702.63 1230.35h23.1v319.42h-23.1z"/><path d="M717.89 1549.77h-7.6c-6.6 0-12-5.4-12-12v-31.41c0-6.6 5.4-12 12-12h7.6c6.6 0 12 5.4 12 12v31.41c0 6.6-5.4 12-12 12z" class="st3"/><path d="m539.54 649.57-17.96 85.85a89.723 89.723 0 0 1-14.66 33.55 124.065 124.065 0 0 0-19.62 100.28l67.77 287.79c6.83 29 25.41 53.86 51.3 68.63l53.05 30.26a158.466 158.466 0 0 0 78.51 20.81h217.01c20.73 0 39.85-11.2 49.99-29.28 3.75-6.7-1.08-14.96-8.76-14.96h-42.39c-10.12 0-20.06-2.7-28.79-7.83l-64.57-37.94c-21.78-12.79-35.42-35.91-36.11-61.16l-7.24-266.77a124.035 124.035 0 0 0-46.81-93.74l-13.21-10.5a89.607 89.607 0 0 1-27.36-36.67l-31.55-78.34c-8.02-19.92-27.53-32.79-49-32.33l-60.17 1.29c-24.02.54-44.51 17.55-49.43 41.06z" class="st5"/><path d="m528.13 844.11-27.36 4.78c-9.43 1.65-15.68 10.86-13.5 20.19.01.06.03.12.04.17l67.77 287.79c.01.05.03.11.04.16 2.06 8.69 10.99 13.89 19.62 11.61l19.5-5.15-66.11-319.55z" style="fill:#d31c50"/><path d="m555.59 627.9-17.96 85.85a89.723 89.723 0 0 1-14.66 33.55 124.065 124.065 0 0 0-19.62 100.28l67.77 287.79c6.83 29 25.41 53.86 51.3 68.63l53.05 30.26a158.466 158.466 0 0 0 78.51 20.81h217.01c20.73 0 39.85-11.2 49.99-29.28 3.75-6.7-1.08-14.96-8.76-14.96h-42.39c-10.12 0-20.06-2.7-28.79-7.83l-64.57-37.94c-21.78-12.79-35.42-35.91-36.11-61.16l-7.24-266.77a124.035 124.035 0 0 0-46.81-93.74l-13.21-10.5a89.607 89.607 0 0 1-27.36-36.67l-31.55-78.34c-8.02-19.92-27.53-32.79-49-32.33l-60.17 1.29c-24.03.54-44.52 17.55-49.43 41.06z" class="st7"/><path d="m605.73 617.32-7.18 99.33a44.265 44.265 0 0 1-9.87 24.8L539.97 801M675.6 615.25l22.69 84.22a70.794 70.794 0 0 0 20.33 33.6l55.41 51.17" class="st8"/><path d="m831.55 831.52-10.04 8.4a41.436 41.436 0 0 0-14.8 33.75l9.94 207.68c.47 9.71 4.33 18.96 10.93 26.1l16.1 17.45" style="stroke-width:2.5;fill:none;stroke:#ff6089;stroke-linecap:round;stroke-linejoin:round;stroke-miterlimit:10"/><path d="m599.81 1133.39-15.46 33.89a107.28 107.28 0 0 1-13.23-31.91l-67.77-287.78 23.19 10.4a41.429 41.429 0 0 1 23.33 28.19l52.56 220.4a41.386 41.386 0 0 1-2.62 26.81z" class="st10"/><path d="M738.73 744.11s-60.84-38.83-66.3-57.93c-5.46-19.1 28.81-66.04 93.26-52.76s7.87 135.36-26.96 110.69z" class="st11"/><path d="M676.61 686.18c-9.87-27.07 48.42-52.33 48.42-52.33s39.33 3.22 19.62-4.69-60.32 8.88-77.67 37.93c-17.36 29.05-23.69 50.71-23.69 50.71l25.71-3.29s.02.02.02.03c9.96-1.51 20.34-2.64 30.72-2.71-11.26-8.46-19.36-15.29-23.13-25.65z" class="st12"/><path d="M1057.02 1513.46c-15.61 1.19-27.96 13.66-29.02 29.28a952.385 952.385 0 0 1-6.3 62.09c-3.54 26.27 35.55 26.04 122.53 36.88 43.86 5.46 63.23-28.11 48.45-31.47-14.79-3.36-78.3-38.3-86.23-48.29-3.71-4.68-4.65-12.74-7.33-24.74-3.4-15.24-17.55-25.62-33.11-24.43l-8.99.68z" class="st5"/><path d="M1050.78 1538.13c9.93 16.64 11.6 42.69 22.27 32.41 11.65-11.23 13.28-13.43 23.29-9.44 4.12 1.64 3.3-7.11 3.24-7.5-.01-.01-.01-.03-.01-.03-1.43-4.45-2.75-9.71-3.9-14.84-2.89-12.96-14.92-21.79-28.16-20.77l-7.66.57c-.3.03-.61.05-.91.09-3.47 4.9-13.93 9.83-8.16 19.51z" class="st13"/><path d="M744.84 1527.58s-20.85 44.65-24.89 61.74c-2.67 11.32-5.09 38.46-6.68 44.3-1.59 5.84-4.75 24.42 11.42 25.8 16.18 1.38 84.56 7.77 90.29.55 5.72-7.22-12.97-33.28-17.08-40.93-4.11-7.65-8.45-84.88-8.45-84.88l-44.61-6.58z" class="st5"/><path d="m792.64 1535.56-10.69 43.59s-9.62-4.96-18.36-5.32c-16.16-.66-18.89 9.68-20.92-2.64-2.02-12.32-7.06-41.71 8.14-40.91 15.2.8 43.65-2.33 41.83 5.28" class="st13"/><path d="M767.85 1012.32s167.26 39.98 284.71 120.92c19.81 13.65 32.59 35.36 35.05 59.3 5.88 57.15 15.31 178.05 10.26 332.03-.48 14.71-12.67 26.33-27.38 26.15l-13.91-.17c-13.36-.17-24.59-10.06-26.45-23.29l-41.67-296.38-268.19-93.94 47.58-124.62z" style="fill:#0d50ab"/><path d="m622.55 1015.72-11.43 85.71c-6.72 50.44 28.71 96.77 79.15 103.5l86.34 11.51a1204.458 1204.458 0 0 0-24.54 162.73l-12.45 152.9c-.94 11.57 7.01 21.98 18.42 24.12l14.86 2.78c11.35 2.13 22.48-4.61 25.85-15.66 17.54-57.5 69.25-228.9 91.33-322.69 6.05-25.73-5.15-52.42-27.78-66.08l-77.76-46.92 9.85-85.03-171.84-6.87z" style="fill:#1e7af5"/><path d="M799.07 1542.24s64.2-207.76 90.99-321.6c6.05-25.73-5.15-52.42-27.78-66.08l-77.76-46.92" class="st16"/><path d="m795.91 930.71 21.95 14.33-2.05 27.36-39.6 19.32-12.78 1s-17.81-8.17-16.76-14.88c1.05-6.69 36.66-48.59 49.24-47.13" class="st17"/><path d="m877.1 755.55 40.08 160.51c4.85 19.41-6.94 39.07-26.34 43.95-18.45 4.64-37.34-5.76-43.29-23.83l-51.72-157.14c-7.68-23.35 6.07-48.31 29.91-54.29 22.69-5.69 45.69 8.11 51.36 30.8z" class="st12"/><path d="M825.74 724.75c22.69-5.69 45.69 8.11 51.36 30.8l40.08 160.51" class="st16"/><path d="M813.79 715.98c-52.09-3.86-122.51-6.5-170.52 1.82-22.34 3.87-37.26 25.19-33.24 47.5l24.94 138.44-18.18 122.15c-1.7 11.4 5.66 22.2 16.9 24.76 39.49 8.99 131.12 25.86 212.34 11.32 17.95-3.21 29.57-20.8 25.65-38.61l-16.31-74.09 19.32-159.24c4.57-37.56-23.18-71.25-60.9-74.05z" style="fill:#8b41d2"/><path d="M786 793c.29.29.62.51.97.69 1.84-8.56 4.17-17.12 7.03-25.69 4.22-17.74 2.04-35.47 2.46-53.21-38.1-2.39-82.76-3.72-120.85-.84 18.97 13.74 37.53 27.75 59.4 38.04C755 761 768 780 786 793z" class="st13"/><path class="st11" d="m634.97 903.74-5.83 39.18 7.53 30.14 46.89-188.82-54.59 86.24z"/><path d="M683.56 784.25 622.55 924.7l133.09 29.56c13.09 2.91 21.09 16.17 17.55 29.1l-.15.54c-3.07 11.24-13.58 18.65-25.08 17.78L575.23 988.6c-24.56-1.86-40.93-26.17-33.41-49.63l59.5-185.68c7.39-23.07 32.05-35.82 55.15-28.52 24.88 7.86 37.49 35.54 27.09 59.48z" class="st12"/><path d="M656.47 724.77c24.89 7.86 37.49 35.54 27.1 59.48L622.55 924.7M622.55 924.7l133.09 29.56c13.09 2.91 21.09 16.17 17.55 29.1" class="st16"/><path d="m739.5 961.7 43.6-31.34a21.891 21.891 0 0 1 22.32-1.92l47.38 22.99c2.77 1.35 3.67 4.86 1.89 7.37a4.99 4.99 0 0 1-5.45 1.91l-34.96-10.1 6.43 17.93c1.32 3.69.15 7.82-2.92 10.26l-24.63 19.61a14.274 14.274 0 0 1-9.5 3.09l-11.75-.52a5.16 5.16 0 0 1-4.6-3.33l-.38-.99s-7.85 1.92-16.37.93c-8.05-.93-14.68-6.61-16.6-14.49-1.56-6.45-1.53-14.8 5.54-21.4z" class="st10"/><path d="M750.57 997.6c-8.05-.93-14.68-6.61-16.6-14.49-1.58-6.47-1.54-14.82 5.53-21.41l43.6-31.34M805.43 928.45l47.38 22.99c2.77 1.35 3.67 4.86 1.89 7.37" class="st16"/><path d="M766.94 996.67s-7.85 1.92-16.37.93M817.8 978.81l-24.63 19.61a14.274 14.274 0 0 1-9.5 3.09" class="st16"/><path d="M793.17 998.42a14.274 14.274 0 0 1-9.5 3.09l-11.75-.52a5.16 5.16 0 0 1-4.6-3.33M814.29 950.62l6.43 17.93c1.32 3.69.15 7.82-2.92 10.26M854.7 958.81a4.99 4.99 0 0 1-5.45 1.91l-34.96-10.1M814.84 980.93l-18.23-38M783.99 952.73l18.65 31.02a6.42 6.42 0 0 1-1.5 8.33l-1.66 1.32" class="st16"/><path d="m771.89 965.99 20.35 24.94a6.207 6.207 0 0 1-.8 8.66h0M766.94 996.67s4.78-1.12 7.09-4.77M814.29 950.62l-3.94-9.91" class="st16"/><circle cx="826.74" cy="572.37" r="46.45" class="st11"/><path d="m728.65 652.48-8.98 55.05c-1.31 8.06-.92 16.31 1.26 24.18 5.29 19.08 16.71 38.92 43.34 41.76 37.54 4.01 27.74-46.75 27.74-46.75l6.77-65.52c.01.01-29.03-22.37-70.13-8.72z" class="st10"/><path d="M748.05 677.01c3.18 30.02 22.52 49.98 45.51 65.98-.3-9.25-1.54-16.27-1.54-16.27l.68-6.57c-16.37-13.36-32.74-24.9-44.65-43.14z" class="st11"/><path d="M850.51 568.61s9.08 15.13 4.4 57.76c-2.15 19.55 3.93 59.08-16.97 82.54-37.69 42.32-84.84.37-103.12-33.7-15.64-29.16-25.72-94.06-6.07-116.74 33.03-38.14 112.93-34.81 121.76 10.14z" class="st10"/><circle cx="801.03" cy="634.24" r="5.95" class="st11"/><path d="M834.28 629.16s-1.33 15.2 4.55 25.51c5.88 10.31 2.85 13.55-10 17.15M826.74 687.18S808 691.45 798 675.03" class="st16"/><ellipse cx="847.66" cy="636.38" class="st11" rx="5.62" ry="5.22" transform="rotate(-86.112 847.63 636.385)"/><path d="M807.69 612.58c-5.59-2.11-15.83-3.21-25.59 3.71-13.33 9.45 16.12 2.76 22.59 6.59 6.46 3.83 9.84-7.72 3-10.3zM843 615.99c3.89-2.22 9.67 1.03 11.05 3.41 5.02 8.72-6 3.51-11.14 5.66-5.15 2.16-3.46-7.04.09-9.07z" class="st7"/><path d="M858.05 584.8c31.96-19.8 12.35-65.29-29.66-63.45s-95.82-13.2-105.49 24.81c0 0-15.01 6.17-20.83 33.26-3.06 14.24 13.87 50.09 13.87 50.09l27.31 13.04s4.02-27.14 8.37-31.1c.46-.42 1.05-.88 1.75-1.41 15.3-11.71 34.77-16.17 53.78-13.1 13.95 2.25 31.16.09 50.9-12.14z" class="st11"/><path d="M744.64 644.67s-2.61-26.21-20.91-25.85c-18.29.36-19.45 37.82 11.87 44.26" class="st10"/><path d="M699.72 711.82c-10.38.07-20.76 1.2-30.72 2.71.46.65 14.56 17.23 41.84 37.28 17.83 13.1 76.96 43.41 76.96 43.41-29.75-43.74-69.92-69.75-88.08-83.4z" class="st12"/><path d="M622.55 924.7s-17.58-5.65-33.64 0" class="st16"/><path d="M855.9 943.85c0 20.91 16.95 37.86 37.86 37.86s37.86-16.95 37.86-37.86c0-12.34-5.91-23.31-15.05-30.22a37.67 37.67 0 0 0-22.81-7.64c-12.07 0-22.81 5.65-29.75 14.44a37.672 37.672 0 0 0-8.11 23.42z" class="st12"/><path d="M916.57 913.63a37.67 37.67 0 0 0-22.81-7.64c-12.07 0-22.81 5.65-29.75 14.44" class="st16"/><circle cx="911.36" cy="948.72" r="27.77" class="st10"/><path d="m911.94 920.48-10.98 3.47a20.766 20.766 0 0 0-14.51 19.17l-.21 6.68a30.201 30.201 0 0 0 4.37 16.6l9.09 14.96a9.527 9.527 0 0 0 10.5 4.28l11.39-2.92 8.35 18.73a6.109 6.109 0 0 0 5.59 3.63c3.83 0 6.72-3.48 6.02-7.24l-3.98-21.36 14.45-2.49c3.61-.62 6.63-3.08 7.97-6.48l6.52-16.47c2.37-5.98 0-12.79-5.57-16.01l-19.55-11.32a36.762 36.762 0 0 0-29.45-3.23z" class="st10"/><path d="m890.61 966.4 9.09 14.96a9.527 9.527 0 0 0 10.5 4.28l11.39-2.92M921.59 982.73l8.35 18.73a6.109 6.109 0 0 0 5.59 3.63h0c3.83 0 6.72-3.48 6.02-7.24l-3.98-21.36M960.95 935.04c5.57 3.22 7.93 10.03 5.57 16.01L960 967.52c-1.35 3.4-4.37 5.86-7.97 6.48l6.6-24.29c.7-2.56.23-5.3-1.28-7.48l-3.17-4.59M937.57 976.49l-3.7-18.33c-.73-3.6-2.38-6.96-4.78-9.73l-4.21-4.86" class="st16"/><path d="m921.59 982.73-3.32-9.27c-1.79-5-4.18-9.77-7.1-14.21h0c-1.01-1.53-3.32-1.35-4.07.33h0a6.024 6.024 0 0 0 2.63 7.75l3.48 1.89M945.43 974.6l2.56-22.59c.32-2.83-.42-5.68-2.09-7.99l-3.96-5.5" class="st16"/><path d="M1145.57 1588.55s-16.59-9.69-33.87 15M1120.44 1574.39s-16.59-9.69-33.87 15" class="st20"/><ellipse cx="1045.89" cy="1183.91" class="st16" rx="35.5" ry="39.3" transform="rotate(-11.392 1045.512 1183.801)"/><path d="M836.23 1243.92c20.65 3.15 40.04-11.7 43.31-33.16 3.27-21.46-10.82-41.4-31.47-44.55s-40.04 11.7-43.31 33.16c-2.29 15.04 3.95 29.34 14.99 37.63" class="st16"/><path d="M805.73 1120.43h0a60.12 60.12 0 0 0 9.71-28.06l1.68-20.03" style="stroke:#659bea;fill:none;stroke-width:2.5;stroke-linecap:round;stroke-linejoin:round;stroke-miterlimit:10"/><path d="M791.93 1628.08s-24.37-20.38-53.71-2.66M786.75 1605.77s-21.8-18.23-48.04-2.38" class="st20"/><path d="M680.19 1072.35s-7.12 40.44-37.98 47.61" class="st16"/><path d="M649.74 716.76s18.47.59 38.58 16.92c20.1 16.33.82-19.68-11.6-30.39s-26.98 13.47-26.98 13.47zM798.79 747.95c-1.56 26.67-10.99 47.26-10.99 47.26s-.3-27.96 2.59-41.69c1.24-5.86 1.24-16.82.84-27.45 2.56.67 5.19 1.2 7.85 1.56.22 6 .15 12.83-.29 20.32z" class="st12"/><path d="M758.86 773.7s17.81 37.59 6.84 75.52-6.84 56.77-6.84 56.77M793.5 772.07s10.78 32.04 16.86 67.77 18.48 53.09 18.48 53.09" class="st16"/><path d="M758.12 918.86c-2.86 0-5.18-2.32-5.18-5.18v-7a5.181 5.181 0 0 1 10.36 0v7c0 2.87-2.32 5.18-5.18 5.18zM837.48 905.01c-2.31 1.68-5.55 1.18-7.23-1.14l-4.12-5.66c-1.68-2.31-1.18-5.55 1.14-7.23 2.31-1.68 5.55-1.18 7.23 1.13l4.12 5.66a5.192 5.192 0 0 1-1.14 7.24z" class="st7"/><path d="M566.82 985.85c2.22-3.75 3.49-8.12 3.49-12.79 0-13.9-11.27-25.16-25.16-25.16" class="st16"/><path d="m1152.61 1146.96 2.26 113.76c.2 9.96 5.53 19.12 14.1 24.21l11.24 6.68" class="st22"/><path d="M1183.27 1276.74s-52.16-15.25-47.98-57.46 29.15-52.3 31.13-72.32" class="st22"/><path d="M1176.3 1310.67s-14.41-80.8-3.45-109.13 14.54-54.59 14.54-54.59" class="st20"/><path d="M773.7 1008.92h757.83c6.18 0 11.19 5.01 11.19 11.19s-5.01 11.19-11.19 11.19H773.7c-6.18 0-11.19-5.01-11.19-11.19s5.01-11.19 11.19-11.19z" class="st23"/><path class="st24" d="M789.54 1031.3h729.18v19.03H789.54z"/><path class="st23" d="m799.69 1128.78-21.99 533.97h-10.26l7.14-554.99z"/><path class="st13" d="M755.54 1136.09v526.66h11.9l19.95-542.79z"/><path class="st23" d="M1067.89 1136.09v526.66H1056l-19.95-542.79z"/><path class="st13" d="m1023.75 1128.78 21.99 533.97H1056l-7.14-554.99z"/><path class="st23" d="m1308.18 1128.78-21.99 533.97h-10.26l7.13-554.99z"/><path class="st23" d="M1264.03 1136.09v526.66h11.9l19.94-542.79z"/><path class="st13" d="m1468.43 1128.78 21.99 533.97h10.26l-7.14-554.99z"/><path class="st23" d="M1512.57 1136.09v526.66h-11.89l-19.95-542.79z"/><path class="st23" d="M1067.89 1050.33h450.83v96.62h-450.83z"/><path class="st24" d="M756.03 1031.84h311.87v18.49H756.03z"/><path d="M1056.7 1031.3H736.21c-6.18 0-11.19-5.01-11.19-11.19s5.01-11.19 11.19-11.19h320.49c6.18 0 11.19 5.01 11.19 11.19s-5.01 11.19-11.19 11.19zM755.38 1050.33h312.52v96.62H755.38z" class="st13"/><path d="M954.13 882.44h381.53c8.97 0 17.39-7.27 18.81-16.23L1392 629.69c1.42-8.97-4.69-16.23-13.66-16.23H996.82c-8.97 0-17.39 7.27-18.81 16.23l-37.54 236.52c-1.42 8.97 4.69 16.23 13.66 16.23" class="st24"/><path d="M961.28 886.3h381.53c8.97 0 17.39-7.27 18.81-16.23l37.54-236.52c1.42-8.97-4.69-16.23-13.66-16.23h-381.53c-8.97 0-17.39 7.27-18.81 16.23l-37.54 236.52c-1.42 8.96 4.7 16.23 13.66 16.23" class="st3"/><path d="M961.28 886.3h381.53c8.97 0 17.39-7.27 18.81-16.23l37.54-236.52" class="st25"/><path d="M1174.2 742.7c-1.8 11.37 5.95 20.59 17.32 20.59s22.05-9.22 23.86-20.59c1.8-11.37-5.95-20.59-17.32-20.59-11.38 0-22.06 9.22-23.86 20.59" class="st23"/><path d="M1208.22 813.86h-52.07c-3.2 0-5.57 2.97-4.87 6.09l36.63 162.37c1.05 4.64-2.32 9.11-7.07 9.38l-135.34 7.7a21.54 21.54 0 0 0-16.69 9.53H1237.39c9.65 0 16.81-8.95 14.68-18.36l-38.99-172.81c-.5-2.29-2.53-3.9-4.86-3.9z" class="st3"/><path d="m1252.08 990.56-38.99-172.81a4.986 4.986 0 0 0-4.87-3.89h-52.07" class="st25"/><path d="M1237.4 1008.92c9.65 0 16.81-8.95 14.68-18.36l-38.99-172.81" class="st25"/><path d="M1187.22 1008.92h-158.4a21.54 21.54 0 0 1 16.69-9.53l135.34-7.7c4.75-.27 8.12-4.74 7.07-9.38l-36.63-162.36c-.71-3.12 1.66-6.09 4.86-6.09h13.5c-3.2 0-5.57 2.97-4.86 6.09l38.07 169.43c2.24 10.02-5.38 19.54-15.64 19.54z" class="st5"/><path class="st5" d="m1151.28 819.95-6.99 66.35h29.65z"/><path d="M1394.47 952.27s12.07-16.04 4.74-37.02c-.46-1.32-2.36-1.26-2.69.1-1.18 4.81-3.88 12.2-9.76 16.17 0 0-1.67-21.1-12.66-31.83a1.42 1.42 0 0 0-2.19.25c-2.7 4.25-10.35 17.78-10.44 34.52 0 0-9.69-5.24-14.13-14.05-.59-1.16-2.31-.94-2.61.33-1.49 6.25-2.81 19.09 6.66 31.53" style="fill:#13ac66"/><path d="m1337.62 960.87 7.49 42.02a7.317 7.317 0 0 0 7.21 6.03h41.15c3.56 0 6.59-2.55 7.21-6.05l.35-1.97h-31.57c-3.55 0-6.58-2.55-7.2-6.04l-7.49-42.02c-.04-.19-.06-.38-.08-.57h-9.86c-4.56 0-8 4.11-7.21 8.6z" class="st23"/><path d="M1354.69 952.27c.02.19.04.38.08.57l7.49 42.02a7.315 7.315 0 0 0 7.2 6.04h31.57l7.05-40.05c.79-4.48-2.66-8.58-7.21-8.58h-46.18z" class="st13"/><path d="M1354.69 952.27c.02.19.04.38.08.57l7.49 42.02a7.315 7.315 0 0 0 7.2 6.04h31.57l7.05-40.05c.79-4.48-2.66-8.58-7.21-8.58h-46.18z" class="st13"/><path d="M995.32 547.53h34.76s10.75 25.3 28.28 17.95c12-5.03 8.9-27.83 5.74-41.71-2.41-10.59-10.63-19-21.25-21.23-3.33-.7-7.21-1.15-11.71-1.22-15.89-.22-32.32-.14-41.41-.07-7.2.06-14.27 2.43-19.76 7.1-3.44 2.93-6.46 6.85-7.34 11.87-2.71 15.48-15.13 48.49 15.41 46.59.01.01 12.49-2.72 17.28-19.28z" style="fill:#fff;stroke:#1f296f;stroke-width:2.5;stroke-linecap:round;stroke-linejoin:round;stroke-miterlimit:10"/><path d="M983.98 510.95v6.6l4.52 4.1 4.95-3.96v-6.74c0-1.51-1.22-2.73-2.73-2.73h-4.01c-1.5 0-2.73 1.22-2.73 2.73zM1002.85 519.67l-6.6.04-4.07 4.55 3.99 4.92 6.74-.04a2.727 2.727 0 0 0 2.71-2.75l-.03-4.01c0-1.5-1.23-2.72-2.74-2.71zM975.25 519.67l6.6.04 4.07 4.55-3.99 4.92-6.74-.04a2.727 2.727 0 0 1-2.71-2.75l.03-4.01c0-1.5 1.23-2.72 2.74-2.71zM983.98 537.16v-6.6l4.52-4.1 4.95 3.96v6.74c0 1.51-1.22 2.73-2.73 2.73h-4.01c-1.5 0-2.73-1.22-2.73-2.73z" class="st3"/><circle cx="1038.21" cy="513.8" r="5.59" class="st3"/><circle cx="1026.9" cy="524.42" r="5.59" class="st3"/><circle cx="1038.21" cy="536.35" r="5.59" class="st3"/><circle cx="1049.38" cy="524.97" r="5.59" class="st3"/><path d="m1218.95 1102.78-63.29 308.51c-2.88 14.04 7.84 27.18 22.17 27.18h289.69c21.41 0 38.76-17.35 38.76-38.76v-289.15c0-21.41-17.35-38.76-38.76-38.76h-210.6c-18.4.01-34.27 12.95-37.97 30.98z" class="st3"/><path d="m1354.93 1102.78-63.29 308.51c-2.88 14.04 7.84 27.18 22.17 27.18h289.69c21.41 0 38.76-17.35 38.76-38.76v-289.15c0-21.41-17.35-38.76-38.76-38.76h-210.6c-18.41.01-34.27 12.95-37.97 30.98z" class="st5"/><path d="m1319.36 1411.32 62.18-303.08c1.1-5.37 5.88-9.27 11.36-9.27h210.6c6.4 0 11.6 5.2 11.6 11.6v289.15c0 6.4-5.2 11.6-11.6 11.6h-284.14z" class="st12"/><path d="M1392.9 1098.97c-5.48 0-10.26 3.9-11.36 9.27l-62.18 303.08h188.8v-312.35H1392.9z" class="st3"/><path d="M1603.5 1098.97h-95.33v312.35h95.33c6.4 0 11.6-5.2 11.6-11.6v-289.15c0-6.39-5.2-11.6-11.6-11.6z" class="st5"/><ellipse cx="1275.57" cy="1137.23" class="st10" rx="14.16" ry="12.18" transform="rotate(-36.07 1275.65 1137.214)"/><path d="M1233.01 1177.62h76.26c2.62 0 4.57 2.41 4.04 4.97l-7.4 35.28a9.558 9.558 0 0 1-9.35 7.59h-76.47c-2.63 0-4.59-2.43-4.03-4.99l7.62-35.31c.95-4.4 4.84-7.54 9.33-7.54z" class="st10"/><path class="st16" d="M1237.76 1193.86h53.55M1234.27 1209.23h53.54"/><path d="m1188.12 1253.1 17.32 14.09a33.215 33.215 0 0 1 11.56 32.54l-24.25 116.5c-2.39 11.48 6.37 22.25 18.1 22.25h16.55M1322.73 1259.76l-33.28 14.64a33.21 33.21 0 0 0-19.19 23.86l-23.74 118.1c-2.3 11.44 6.45 22.13 18.12 22.13h22.38" class="st8"/><path d="m1178.89 1298.08 6.2 6.58a8.488 8.488 0 0 1 2.13 7.54l-15.89 76.58c-.56 2.7-2.4 4.96-4.93 6.06l-8.09 3.51 20.58-100.27z" class="st10"/><path class="st3" d="M1596.17 1232.1h-221.05l-34.58 179.22h255.63z"/><path class="st25" d="M1596.17 1232.1h-221.05l-34.58 179.22"/><circle cx="1576.26" cy="1137.23" r="13.15" class="st10"/><path d="M1559.5 1321.71h-120.2c-3.05 0-5.52-2.47-5.52-5.52 0-3.05 2.47-5.52 5.52-5.52h120.2c3.05 0 5.52 2.47 5.52 5.52 0 3.05-2.47 5.52-5.52 5.52zM1559.5 1290.28h-120.2c-3.05 0-5.52-2.47-5.52-5.52 0-3.05 2.47-5.52 5.52-5.52h120.2c3.05 0 5.52 2.47 5.52 5.52 0 3.05-2.47 5.52-5.52 5.52z" class="st5"/><path class="st23" d="M1250.36 1438.48h442.61v24.66h-442.61z"/><path class="st13" d="M1135.29 1438.48h195.45v24.66h-195.45zM1162.63 1463.14h140.76v201.54h-140.76z"/><path class="st24" d="M1162.63 1463.14h140.76v19.29h-140.76z"/><path class="st2" d="M1303.39 1664.68h-140.76v-201.54"/><path class="st24" d="M1642.26 1664.68h-338.87v-201.54h338.87v123.53z"/><path class="st2" d="M1642.26 1586.67v78.01h-170.6M1330.74 1463.14h-195.45v-24.66h195.45"/><path d="M1570.72 1577.49h-192.54a5.55 5.55 0 0 1-5.55-5.55v-24.16a5.55 5.55 0 0 1 5.55-5.55h192.54a5.55 5.55 0 0 1 5.55 5.55v24.16c-.01 3.07-2.49 5.55-5.55 5.55z" class="st16"/><path d="M423.7 1363.5s27.45 60.45 18.7 102.77h20.09s-11.87-86.65-43.21-117.38" class="st28"/><path d="M468.03 1336.43s-29.72 31.61-20.15 129.84h14.61s-14.61-80.34 10.08-129.84" class="st29"/><path d="M493.72 1340.83s-38.79 44.33-18.14 125.44h-16.31s-10.39-59.95 19.34-117.38M304.81 1187.18s9.07 9.82 12.09 29.47 36.27.76 41.56 9.82c5.29 9.07-11.33 6.8-26.83 6.8-15.49 0-13.98 1.51-13.22 22.67s9.82 39.29 19.65 43.07c9.82 3.78 51.04-24.18 58.94-13.6 7.9 10.58-40.42 6.49-46.1 20.65-5.67 14.16 17.08 29.22 42.73 36.02 25.65 6.8 48.84 4.34 63.89-10.3 15.05-14.64 19.51-43.02 22.57-62.45s-4.5-45.89-28.68-61.75c-24.18-15.87-10.08 4.28-12.59 21.41-2.52 17.13-12.09 11.59-11.08.5 1.01-11.08 6.05-28.71-5.54-42.32-11.59-13.6-44.84-12.59-50.38-12.09s9.07 11.75 6.55 21.49c-2.52 9.74-12.09-17.95-17.13-21.74-5.05-3.77-36.79 10.34-56.43 12.35z" class="st28"/><path d="M442.4 1342.09s-.82-105.12-97.54-145.51" class="st19"/><path d="M392.04 1324.21s32.16-4.53 46.77 8.56c14.61 13.1-1.01 54.41-7.56 61.46-6.55 7.05-3.53-23.93-21.16-35.39s-9.57 6.17-2.02 10.71c7.56 4.53 14.32 20.15 11.19 32.75s-17.33 26.7-27.87 30.73c-10.53 4.03.89-16.16-14.56-28.21-8.31-6.48-10.02-.97-5.54 5.04 5.75 7.72 13.47 19.86 8.43 29.18-5.46 10.11-29.59 10.62-47.73 38.33 0 0-17.13-15.11-27.71-33.75-10.58-18.64-9.57-23.17 2.52-29.22s16.12-9.32 16.12-13.98-10.58-.63-18.64 5.92-14.11 6.55-16.62 2.52-2.13-29.87 5.54-35.77c9.63-7.4 21.66-17.13 33.25-20.15 11.59-3.02 6.55-9.57 0-6.55-6.55 3.02-29.72 17.63-31.74 16.12-2.02-1.51 2.02-20.65 24.18-33.25 22.17-12.59 45.84-10.58 54.41-8.06 8.58 2.5 12.84 3.55 18.74 3.01z" class="st29"/><path d="M384.91 1325.72s-46.35 10.58-52.9 114.36" class="st19"/><path d="M444.86 1360.48s-15.12-25.19-7.06-51.38c8.06-26.2 27.71-40.3 30.23-37.78 2.52 2.52 3.11 24.68 11.13 26.7 8.02 2.02.96-8.56-2.06-18.64s-.92-17.63 2.06-20.15c2.98-2.52 26.66-13.6 31.19-13.1 4.53.5-.96 24.18 3.8 20.65 4.76-3.53.73-17.67 6.78-20.67 6.05-3.01 31.74-4.52 57.43 3.04 0 0-8.06 17.63-9.07 29.72-1.01 12.09-10.58 8.06-20.91 10.08-10.33 2.02-1.19 7.05 4.06 6.05 5.26-1.01 12.81-2.52 14.32-.5 1.51 2.02 6.05 11.08-10.58 39.8-16.62 28.7-63.76 62.96-111.32 26.18z" class="st29"/><path d="M564.75 1252.17s-61.46 14.61-110.33 107.81M397.58 1401.35c-12.67-44.19-45.34-44.19-45.34-44.19s-27.71-.44-44.84 22.1M352.24 1438.06c-2.52-13.1-17.7-22.75-17.7-22.75s-11.94 2.1-21.09 15.2M429.82 1348.89c-12.7-23.61-51.28-20.46-51.28-20.46s-24.58-7.18-46.53-.14M457.51 1252.17s-4.52 31.91-20.64 53.9c0 0-45.34 6.64-57.93 3.99M349.72 1259.95c18.64 3.92 63.99-6.82 63.99-6.82s3.52-39.92-5.55-52.52M341.66 1210.19c9.07 0 20.67-5.06 20.67-5.06s-1.68-9.55-3.87-12.57" class="st19"/><path d="M497.67 1267.62c-4.69 12.09 0 30.23 0 30.23s19.73 8.4 41.18 8.23M541.63 1252.17s-5.01 8.58-6.01 13.78c0 0 12.09 4.11 21.66 3.39M465.29 1340.83s-6.79-17.96-6.02-34.76" class="st19"/><path d="M442.62 1367.2s.73-24.73 24.21-37.2c23.48-12.47 37.46-3.02 49.93-6.05 12.47-3.02 32.87-5.67 47.98 7.56 15.11 13.22 19.27 27.58 17.38 28.34-1.89.76-16.62-8.31-22.29-3.78-5.67 4.53 10.58 6.02 18.14 11.13 7.56 5.11 9.07 20.49 7.18 31.13-1.89 10.64-4.16 12.53-10.96 4.59-6.8-7.93-15.49-9.94-13.98-4.59 1.51 5.35 15.49 14.04 14.36 20.08s-16.62 33.63-18.89 38.92c0 0-20.78-11.84-33.63-17.25-12.85-5.42-6.8-12.22-3.02-17.88s14.74-18.51 12.09-21.54c-2.64-3.02-10.96 3.4-15.11 13.22s-6.05 18.51-7.56 19.65c-1.51 1.13-20.4-.38-31.74-10.58-11.33-10.2-8.69-15.87-8.31-17.76.38-1.89 9.45-15.22 22.29-22.73 12.85-7.5 9.45-13.92 3.78-12.79-5.67 1.13-20.78 15.87-26.07 25.69-5.29 9.82-3.02 9.07-13.98-1.89s-12.77-19.78-11.8-26.27z" class="st28"/><path d="M514.14 1325.72s41.16 16.37 38.14 101.76" class="st19"/><path d="M564.75 1419.93c-3.61-5.54-12.58-12.34-12.58-12.34s-12.59 10.92-16.56 23.93M578.35 1386.17s-17.75-12.25-31.5-13.43c0 0-32.9 4.86-47.51 34.84M564.75 1342.09s-23.13-13.35-36.78-5.66c0 0-45.41-4.16-61.45 32.11" class="st19"/><path d="M521.83 1662.78H411.21c-5.42 0-9.9-4.25-10.18-9.66l-9.51-180.9c-.31-5.83 4.34-10.73 10.18-10.73h129.63c5.84 0 10.49 4.9 10.18 10.73l-4.03 76.68-5.48 104.22c-.27 5.42-4.75 9.66-10.17 9.66z" class="st17"/><path d="M531.33 1461.49H484l-3.41 168h-80.81l1.24 23.63c.28 5.42 4.76 9.66 10.18 9.66h110.62c5.42 0 9.9-4.25 10.18-9.66l1.24-23.63 4.24-80.59 4.03-76.68c.32-5.83-4.33-10.73-10.18-10.73z" class="st24"/><path d="M472.56 1662.78H411.2c-5.42 0-9.9-4.25-10.18-9.66M537.49 1548.9l-5.48 104.22c-.28 5.42-4.76 9.66-10.18 9.66h-49.26M401.02 1653.12l-9.51-180.9c-.31-5.83 4.34-10.73 10.18-10.73h129.63M392.04 1484.93h149.59" class="st2"/><path d="M1009.3 1008.92H812.79c-3.37 0-6.13-2.76-6.13-6.13s2.76-6.13 6.13-6.13h196.51c3.37 0 6.13 2.76 6.13 6.13 0 3.38-2.76 6.13-6.13 6.13z" class="st3"/><path d="M1033.5 899.94c-3.39-5.88-6.63-13.74-7.34-23.02h-25.84s-.25 11.11-6.34 25.03a64.597 64.597 0 0 0-4.25 13.8h50.36a66.218 66.218 0 0 0-6.59-15.81z" class="st23"/><path d="M989.73 915.75c-1.09 5.71-1.42 11.57-1.03 17.41l1.29 68.1a7.803 7.803 0 0 0 7.81 7.66h36.69c4.31 0 7.81-3.5 7.81-7.81V932.3c0-5.62-.76-11.18-2.22-16.56h-50.35z" class="st30"/><path d="M1000.94 995.59c-1.67 0-3.03-1.36-3.03-3.03v-66.61c0-1.67 1.36-3.03 3.03-3.03 1.67 0 3.03 1.36 3.03 3.03v66.61c0 1.67-1.36 3.03-3.03 3.03z" class="st31"/><path d="M1025.97 878.25H999.9c-3.27 0-5.95-2.68-5.95-5.95s2.68-5.95 5.95-5.95h26.07c3.27 0 5.95 2.68 5.95 5.95s-2.68 5.95-5.95 5.95z" class="st13"/><path d="M1015.43 995.59c-1.67 0-3.03-1.36-3.03-3.03v-66.61c0-1.67 1.36-3.03 3.03-3.03 1.67 0 3.03 1.36 3.03 3.03v66.61c-.01 1.67-1.37 3.03-3.03 3.03zM1029.85 994.79c-1.67 0-3.03-1.36-3.03-3.03v-66.61c0-1.67 1.36-3.03 3.03-3.03 1.67 0 3.03 1.36 3.03 3.03v66.61c0 1.67-1.36 3.03-3.03 3.03z" class="st31"/><path d="M643.27 541.43v5.65c0 6.03-4.89 10.92-10.92 10.92H483.48c-6.03 0-10.92-4.89-10.92-10.92v-53.42c0-6.03 4.89-10.92 10.92-10.92h19.87" class="st16"/><path d="m688.53 533.35-8.57-6.27a6.559 6.559 0 0 0-3.89-1.27H519.54a6.59 6.59 0 0 1-6.59-6.59v-67.76a6.59 6.59 0 0 1 6.59-6.59h168.03a6.59 6.59 0 0 1 6.59 6.59v79.02c0 2.91-3.29 4.58-5.63 2.87z" class="st30"/><path class="st19" d="M669.57 468.41h-65.14M669.57 483.41h-65.14M669.57 498.41H637M537.55 464.1h39.18v39.18h-39.18z"/><path d="M570.58 503.27h-26.89v-6.14c0-7.43 6.02-13.45 13.45-13.45h0c7.43 0 13.45 6.02 13.45 13.45v6.14z" class="st19"/><circle cx="557.14" cy="476.44" r="6.86" class="st19"/><path d="m738.64 654.5 9.45 17.07a58.665 58.665 0 0 0 47.72 30.14l25.45 1.56" class="st16"/><path d="M817.77 521.5s-54.3-6.89-72.66 41.32-8.98 79.73-8.98 79.73h-17.21s-5.89-49.11 9.83-84.09a79.39 79.39 0 0 1 10.62-17.33c14.32-17.8 36.45-27.46 59.26-26.45l32.7 1.45c4.03.18 7.74 2.28 9.96 5.66l.42.64-23.94-.93z" class="st13"/><path d="M739.37 541.14c14.32-17.8 36.45-27.46 59.26-26.45l32.7 1.45c4.03.18 7.74 2.28 9.96 5.66" class="st16"/><path d="M718.92 642.55h17.21s-5.15-17.35-.32-45.98h-16.68c-2.77 24.6-.21 45.98-.21 45.98z" class="st24"/><circle cx="727.74" cy="635.15" r="27.92" class="st13"/><circle cx="722.93" cy="635.15" r="19.36" class="st23"/><path d="M821.28 708.75h-15.75a5.46 5.46 0 0 1 0-10.92h15.75a5.46 5.46 0 0 1 5.46 5.46c0 3.01-2.45 5.46-5.46 5.46z" class="st7"/></g></switch></svg>